<?xml version="1.0" standalone="no"?>
<!DOCTYPE svg PUBLIC "-//W3C//DTD SVG 20010904//EN"
 "http://www.w3.org/TR/2001/REC-SVG-20010904/DTD/svg10.dtd">
<svg version="1.0" xmlns="http://www.w3.org/2000/svg"
 width="417.000000pt" height="417.000000pt" viewBox="0 0 417.000000 417.000000"
 preserveAspectRatio="xMidYMid meet">
<metadata>
Created by potrace 1.14, written by Peter Selinger 2001-2017
</metadata>
<g transform="translate(0.000000,417.000000) scale(0.100000,-0.100000)"
fill="#000000" stroke="none">
<path d="M2009 3028 c-3 -9 -4 -1845 -1 -1856 3 -9 47 -12 173 -12 l169 0 0
397 c0 384 1 398 21 441 34 69 120 154 191 190 55 27 72 31 133 29 60 -2 77
-7 112 -32 45 -32 76 -84 92 -155 6 -27 11 -210 11 -458 l0 -412 171 2 172 3
-1 460 c0 445 -2 500 -23 594 -50 228 -247 342 -509 294 -135 -25 -263 -105
-339 -212 l-31 -44 0 386 0 387 -170 0 c-93 0 -170 -1 -171 -2z"/>
<path d="M346 2973 c-3 -4 -6 -413 -6 -910 l0 -903 176 2 177 3 -1 302 -1 301
176 -1 176 -2 185 -302 184 -303 198 0 199 0 -126 208 c-70 114 -162 265 -205
336 -43 71 -78 132 -78 135 0 3 21 17 47 31 26 14 73 50 103 80 175 172 220
454 110 682 -80 166 -233 295 -396 334 -36 9 -909 15 -918 7z m870 -330 c158
-84 199 -340 77 -483 -65 -75 -84 -80 -360 -80 l-242 0 1 288 c0 158 2 290 5
294 2 4 110 6 241 5 222 -2 240 -4 278 -24z"/>
<path d="M3550 1344 l0 -184 140 0 140 0 -2 183 -3 182 -137 2 -138 2 0 -185z"/>
</g>
</svg>
